<svg xmlns="http://www.w3.org/2000/svg" xmlns:svg="http://www.w3.org/2000/svg" id="svg72" width="18" height="23" version="1.1" viewBox="0 0 18 23"><metadata id="metadata78"/><title id="title63">Copy to clipboard</title><g id="Welcome" fill="none" fill-rule="evenodd" stroke="none" stroke-width="1"><g id="Desktop---Homepage" fill="#FF1D25" transform="translate(-956.000000, -1156.000000)"><g id="Git-links" transform="translate(0.000000, 960.000000)"><g id="Container" transform="translate(435.000000, 48.000000)"><g id="Code-block-" transform="translate(14.000000, 134.000000)"><g id="baseline-file_copy-24px" transform="translate(500.000000, 10.000000)"><path id="Copy-to-clipboard" d="M20.2631579,4.95833333 L8.89473684,4.95833333 C7.85263158,4.95833333 7,5.82083333 7,6.875 L7,20.2916667 L8.89473684,20.2916667 L8.89473684,6.875 L20.2631579,6.875 L20.2631579,4.95833333 Z M19.3157895,8.79166667 L25,14.5416667 L25,24.125 C25,25.1791667 24.1473684,26.0416667 23.1052632,26.0416667 L12.6747368,26.0416667 C11.6326316,26.0416667 10.7894737,25.1791667 10.7894737,24.125 L10.7989474,10.7083333 C10.7989474,9.65416667 11.6421053,8.79166667 12.6842105,8.79166667 L19.3157895,8.79166667 Z M18.3684211,15.5 L23.5789474,15.5 L18.3684211,10.2291667 L18.3684211,15.5 Z"/></g></g></g></g></g></g></svg>